<svg width="24" height="24" viewBox="0 0 24 24" fill="none" xmlns="http://www.w3.org/2000/svg">
<path d="M2.58281 6.60405C4.00899 6.60405 5.16561 5.44252 5.16561 4.02124C5.16561 2.59996 4.00899 1.43353 2.58281 1.43353C1.15663 1.43353 0 2.59506 0 4.01634C0 5.43762 1.16153 6.60405 2.58281 6.60405ZM2.58281 2.63427C3.34736 2.63427 3.96488 3.25669 3.96488 4.01634C3.96488 4.77599 3.34245 5.39841 2.58281 5.39841C1.82316 5.39841 1.20074 4.77599 1.20074 4.01634C1.20074 3.25669 1.82316 2.63427 2.58281 2.63427Z" fill="white"/>
<path d="M2.58281 14.5828C4.00899 14.5828 5.16561 13.4213 5.16561 12C5.16561 10.5787 4.00899 9.41719 2.58281 9.41719C1.15663 9.41719 0 10.5738 0 12C0 13.4262 1.16153 14.5828 2.58281 14.5828ZM2.58281 10.6179C3.34736 10.6179 3.96488 11.2403 3.96488 12C3.96488 12.7596 3.34245 13.3821 2.58281 13.3821C1.82316 13.3821 1.20074 12.7645 1.20074 12C1.20074 11.2354 1.82316 10.6179 2.58281 10.6179Z" fill="white"/>
<path d="M2.58281 22.5665C4.00899 22.5665 5.16561 21.4049 5.16561 19.9837C5.16561 18.5575 4.00408 17.4009 2.58281 17.4009C1.16153 17.4009 0 18.5624 0 19.9837C0 21.4049 1.16153 22.5665 2.58281 22.5665ZM2.58281 18.5967C3.34736 18.5967 3.96488 19.2191 3.96488 19.9788C3.96488 20.7433 3.34245 21.3608 2.58281 21.3608C1.82316 21.3608 1.20074 20.7384 1.20074 19.9788C1.20074 19.2191 1.82316 18.5967 2.58281 18.5967Z" fill="white"/>
<path d="M8.62079 4.61915H23.3972C23.7305 4.61915 24 4.3496 24 4.01633C24 3.68307 23.7305 3.41351 23.3972 3.41351H8.62079C8.28753 3.41351 8.01797 3.68307 8.01797 4.01633C8.01797 4.3496 8.28753 4.61915 8.62079 4.61915Z" fill="white"/>
<path d="M8.62079 12.6028H23.3972C23.7305 12.6028 24 12.3333 24 12C24 11.6667 23.7305 11.3972 23.3972 11.3972H8.62079C8.28753 11.3972 8.01797 11.6667 8.01797 12C8.01797 12.3333 8.28753 12.6028 8.62079 12.6028Z" fill="white"/>
<path d="M8.62079 20.5816H23.3972C23.7305 20.5816 24 20.312 24 19.9788C24 19.6455 23.7305 19.3759 23.3972 19.3759H8.62079C8.28753 19.3759 8.01797 19.6455 8.01797 19.9788C8.01797 20.312 8.28753 20.5816 8.62079 20.5816Z" fill="white"/>
</svg>
